<svg xmlns="http://www.w3.org/2000/svg" xmlns:xlink="http://www.w3.org/1999/xlink" width="500" zoomAndPan="magnify" viewBox="0 0 375 374.999991" height="500" preserveAspectRatio="xMidYMid meet" version="1.0"><defs><g/></defs><rect x="-37.5" width="450" fill="rgb(100%, 100%, 100%)" y="-37.499999" height="449.999989" fill-opacity="1"/><rect x="-37.5" width="450" fill="rgb(15.289307%, 15.289307%, 15.289307%)" y="-37.499999" height="449.999989" fill-opacity="1"/><rect x="-37.5" width="450" fill="rgb(100%, 100%, 100%)" y="-37.499999" height="449.999989" fill-opacity="1"/><rect x="-37.5" width="450" fill="rgb(15.289307%, 15.289307%, 15.289307%)" y="-37.499999" height="449.999989" fill-opacity="1"/><g fill="rgb(92.549133%, 90.19928%, 85.879517%)" fill-opacity="1"><g transform="translate(118.718517, 238.499984)"><g><path d="M 19.5 0 L 38.101562 -46.5 L 82.949219 -46.5 L 86.25 -38.101562 C 91.800781 -24 93.601562 -11.550781 95.398438 0 L 103.648438 0 L 61.5 -105.300781 L 46.5 -105.300781 L 4.5 0 Z M 60.449219 -102.75 L 82.050781 -48.601562 L 38.851562 -48.601562 Z M 60.449219 -102.75 "/></g></g></g><g fill="rgb(92.549133%, 90.19928%, 85.879517%)" fill-opacity="1"><g transform="translate(226.86853, 238.499984)"><g><path d="M 15.601562 -32.851562 C 15.601562 -74.550781 22.199219 -85.5 22.199219 -105.300781 L 7.199219 -105.300781 C 7.199219 -85.5 13.5 -74.550781 13.5 -32.851562 Z M 14.699219 2.550781 C 19.199219 2.550781 22.648438 -1.050781 22.648438 -5.550781 C 22.648438 -9.898438 19.199219 -13.5 14.699219 -13.5 C 10.199219 -13.5 6.75 -9.898438 6.75 -5.550781 C 6.75 -1.050781 10.199219 2.550781 14.699219 2.550781 Z M 14.699219 2.550781 "/></g></g></g><path fill="rgb(15.289307%, 15.289307%, 15.289307%)" d="M 49.042969 173.644531 L 337.6875 173.644531 L 337.6875 201.394531 L 49.042969 201.394531 L 49.042969 173.644531 " fill-opacity="1" fill-rule="nonzero"/><g fill="rgb(92.549133%, 90.19928%, 85.879517%)" fill-opacity="1"><g transform="translate(114.674047, 191.624987)"><g><path d="M 1.710938 0 L 2.6875 0 C 2.625 -0.273438 2.589844 -0.574219 2.589844 -1.328125 L 2.589844 -5.039062 L 9.085938 -5.039062 C 9.839844 -5.039062 10.140625 -5.007812 10.414062 -4.941406 L 10.414062 -5.824219 C 10.140625 -5.773438 9.839844 -5.742188 9.085938 -5.742188 L 2.589844 -5.742188 L 2.589844 -10.460938 L 10.320312 -10.460938 C 11.070312 -10.460938 11.359375 -10.429688 11.628906 -10.367188 L 11.390625 -11.199219 L 1.710938 -11.199219 C 1.757812 -10.925781 1.792969 -10.621094 1.792969 -9.871094 L 1.792969 -1.328125 C 1.792969 -0.574219 1.757812 -0.273438 1.710938 0 Z M 1.710938 0 "/></g></g></g><g fill="rgb(92.549133%, 90.19928%, 85.879517%)" fill-opacity="1"><g transform="translate(128.799095, 191.624987)"><g><path d="M 7.472656 0.222656 C 11.132812 0.222656 13.855469 -2.144531 13.855469 -5.597656 C 13.855469 -9.070312 11.132812 -11.421875 7.472656 -11.421875 C 3.792969 -11.421875 1.085938 -9.070312 1.085938 -5.597656 C 1.085938 -2.144531 3.792969 0.222656 7.472656 0.222656 Z M 7.472656 -0.527344 C 4.351562 -0.527344 1.886719 -2.511719 1.886719 -5.597656 C 1.886719 -8.703125 4.351562 -10.6875 7.472656 -10.6875 C 10.589844 -10.6875 13.054688 -8.703125 13.054688 -5.597656 C 13.054688 -2.511719 10.589844 -0.527344 7.472656 -0.527344 Z M 7.472656 -0.527344 "/></g></g></g><g fill="rgb(92.549133%, 90.19928%, 85.879517%)" fill-opacity="1"><g transform="translate(145.611502, 191.624987)"><g><path d="M 12.75 0.238281 C 13.324219 0.238281 13.773438 0.046875 14.140625 -0.351562 L 13.933594 -1.183594 C 13.582031 -0.769531 13.199219 -0.574219 12.734375 -0.574219 C 10.320312 -0.574219 12.300781 -5.472656 7.613281 -5.472656 L 7.535156 -5.472656 L 7.535156 -5.582031 L 8.878906 -5.582031 C 10.941406 -5.582031 12.335938 -6.863281 12.335938 -8.382812 C 12.335938 -10.175781 10.796875 -11.199219 8.527344 -11.199219 L 1.726562 -11.199219 C 1.757812 -10.925781 1.792969 -10.621094 1.792969 -9.871094 L 1.792969 -1.328125 C 1.792969 -0.574219 1.757812 -0.289062 1.726562 0 L 2.6875 0 C 2.625 -0.289062 2.589844 -0.574219 2.589844 -1.328125 L 2.589844 -5.199219 C 3.152344 -5.328125 5.152344 -5.359375 5.808594 -5.359375 C 12.175781 -5.359375 8.941406 0.238281 12.75 0.238281 Z M 2.589844 -5.902344 L 2.589844 -10.429688 L 8.480469 -10.429688 C 10.320312 -10.429688 11.535156 -9.597656 11.535156 -8.382812 C 11.535156 -7.136719 10.300781 -5.902344 8.320312 -5.902344 Z M 2.589844 -5.902344 "/></g></g></g><g fill="rgb(92.549133%, 90.19928%, 85.879517%)" fill-opacity="1"><g transform="translate(161.704088, 191.624987)"><g/></g></g><g fill="rgb(92.549133%, 90.19928%, 85.879517%)" fill-opacity="1"><g transform="translate(168.454917, 191.624987)"><g><path d="M 7.902344 0.222656 C 9.550781 0.222656 11.246094 -0.222656 12.316406 -0.992188 L 12.316406 -1.871094 C 11.308594 -1.023438 9.566406 -0.527344 7.917969 -0.527344 C 4.511719 -0.527344 1.886719 -2.414062 1.886719 -5.566406 C 1.886719 -8.671875 4.511719 -10.6875 7.902344 -10.6875 C 9.421875 -10.6875 10.863281 -10.253906 11.789062 -9.566406 L 11.886719 -10.429688 C 10.863281 -11.054688 9.390625 -11.421875 7.917969 -11.421875 C 3.96875 -11.421875 1.085938 -9.023438 1.085938 -5.566406 C 1.085938 -2.078125 3.96875 0.222656 7.902344 0.222656 Z M 7.902344 0.222656 "/></g></g></g><g fill="rgb(92.549133%, 90.19928%, 85.879517%)" fill-opacity="1"><g transform="translate(183.347783, 191.624987)"><g><path d="M 0.351562 0 L 1.390625 0 C 1.472656 -0.273438 1.601562 -0.574219 2.015625 -1.328125 L 2.976562 -3.039062 L 11.007812 -3.039062 L 11.964844 -1.328125 C 12.367188 -0.574219 12.492188 -0.273438 12.589844 0 L 13.628906 0 C 13.421875 -0.273438 13.230469 -0.574219 12.828125 -1.328125 L 8.175781 -9.902344 C 7.933594 -10.335938 7.726562 -10.765625 7.597656 -11.199219 L 6.429688 -11.199219 C 6.335938 -10.925781 6.207031 -10.621094 5.792969 -9.871094 L 1.152344 -1.328125 C 0.75 -0.574219 0.542969 -0.273438 0.351562 0 Z M 3.34375 -3.742188 L 6.0625 -8.78125 C 6.351562 -9.328125 6.640625 -9.855469 6.925781 -10.382812 L 7.023438 -10.382812 L 7.886719 -8.796875 L 10.621094 -3.742188 Z M 3.34375 -3.742188 "/></g></g></g><g fill="rgb(92.549133%, 90.19928%, 85.879517%)" fill-opacity="1"><g transform="translate(199.200418, 191.624987)"><g><path d="M 7.167969 0.222656 C 10.414062 0.222656 12.636719 -1.726562 12.636719 -4.703125 L 12.636719 -9.871094 C 12.636719 -10.621094 12.6875 -10.925781 12.734375 -11.199219 L 11.757812 -11.199219 C 11.804688 -10.925781 11.855469 -10.621094 11.855469 -9.871094 L 11.855469 -4.71875 C 11.855469 -2.078125 9.871094 -0.527344 7.167969 -0.527344 C 4.464844 -0.527344 2.496094 -2.078125 2.496094 -4.71875 L 2.496094 -9.871094 C 2.496094 -10.621094 2.527344 -10.925781 2.574219 -11.199219 L 1.601562 -11.199219 C 1.664062 -10.925781 1.695312 -10.621094 1.695312 -9.871094 L 1.695312 -4.703125 C 1.695312 -1.726562 3.917969 0.222656 7.167969 0.222656 Z M 7.167969 0.222656 "/></g></g></g><g fill="rgb(92.549133%, 90.19928%, 85.879517%)" fill-opacity="1"><g transform="translate(215.40497, 191.624987)"><g><path d="M 6.398438 0.222656 C 9.488281 0.222656 11.503906 -1.085938 11.503906 -3.007812 C 11.503906 -7.261719 1.953125 -5.023438 1.953125 -8.429688 C 1.953125 -9.855469 3.984375 -10.703125 6.128906 -10.6875 C 7.789062 -10.6875 9.488281 -10.253906 10.527344 -9.664062 L 10.527344 -10.496094 C 9.4375 -11.007812 7.808594 -11.421875 6.128906 -11.421875 C 3.472656 -11.421875 1.136719 -10.300781 1.136719 -8.398438 C 1.136719 -4.175781 10.703125 -6.429688 10.703125 -2.960938 C 10.703125 -1.472656 8.941406 -0.511719 6.429688 -0.511719 C 4.589844 -0.511719 2.65625 -0.929688 0.910156 -1.839844 L 0.863281 -0.992188 C 2.574219 -0.191406 4.558594 0.222656 6.398438 0.222656 Z M 6.398438 0.222656 "/></g></g></g><g fill="rgb(92.549133%, 90.19928%, 85.879517%)" fill-opacity="1"><g transform="translate(229.705987, 191.624987)"><g><path d="M 1.710938 0 L 11.679688 0 L 11.902344 -0.847656 C 11.628906 -0.785156 11.328125 -0.75 10.574219 -0.75 L 2.589844 -0.75 L 2.589844 -5.277344 L 9.152344 -5.277344 C 9.902344 -5.277344 10.207031 -5.246094 10.476562 -5.183594 L 10.476562 -6.0625 C 10.207031 -6.015625 9.902344 -5.984375 9.152344 -5.984375 L 2.589844 -5.984375 L 2.589844 -10.460938 L 10.300781 -10.460938 C 11.054688 -10.460938 11.359375 -10.429688 11.628906 -10.367188 L 11.390625 -11.199219 L 1.710938 -11.199219 C 1.757812 -10.925781 1.792969 -10.621094 1.792969 -9.871094 L 1.792969 -1.328125 C 1.792969 -0.574219 1.757812 -0.273438 1.710938 0 Z M 1.710938 0 "/></g></g></g><path stroke-linecap="butt" transform="matrix(1.498287, 0, 0, 1.5, 48.991936, 187.499988)" fill="none" stroke-linejoin="miter" d="M 0.00016807 0.00000820833 L 20.523607 0.00000820833 " stroke="rgb(92.549133%, 90.19928%, 85.879517%)" stroke-width="1" stroke-opacity="1" stroke-miterlimit="4"/><path stroke-linecap="butt" transform="matrix(1.498287, 0, 0, 1.5, 296.491919, 187.499988)" fill="none" stroke-linejoin="miter" d="M 0.000178917 0.00000820833 L 20.523617 0.00000820833 " stroke="rgb(92.549133%, 90.19928%, 85.879517%)" stroke-width="1" stroke-opacity="1" stroke-miterlimit="4"/></svg>